<svg xmlns="http://www.w3.org/2000/svg" width="80.746" height="108.048" viewBox="0 0 80.746 108.048">
    <defs>
        <style>
            .cls-1{fill:#fff}
        </style>
    </defs>
    <g id="logo" transform="translate(311.095 -76.353)">
        <path id="Trazado_2247" d="M-262.5 76.385a9.465 9.465 0 0 0-10.208 8.66 9.465 9.465 0 0 0 8.66 10.208 9.466 9.466 0 0 0 10.208-8.66 9.466 9.466 0 0 0-8.66-10.208zm5.178 10.218a1.01 1.01 0 0 1-.923-1.089 4.875 4.875 0 0 0-4.583-5.134 1.01 1.01 0 0 1-.924-1.089 1.01 1.01 0 0 1 1.089-.923 6.9 6.9 0 0 1 6.43 7.311 1.01 1.01 0 0 1-1.093.921z" class="cls-1" data-name="Trazado 2247"/>
        <path id="Trazado_2248" d="M-279.9 89.346a5.411 5.411 0 0 0-6.993 3.109 5.412 5.412 0 0 0 3.108 6.994 5.413 5.413 0 0 0 6.994-3.109 5.412 5.412 0 0 0-3.109-6.994zm1.74 5.7a.808.808 0 0 1-.8.712.774.774 0 0 1-.1-.006.809.809 0 0 1-.707-.9 2.4 2.4 0 0 0-.56-1.831 2.78 2.78 0 0 0-1.821-.971.808.808 0 0 1-.706-.9.8.8 0 0 1 .9-.706 4.387 4.387 0 0 1 2.87 1.541 4 4 0 0 1 .923 3.059z" class="cls-1" data-name="Trazado 2248"/>
        <circle id="Elipse_478" cx="5.169" cy="5.169" r="5.169" class="cls-1" data-name="Elipse 478" transform="translate(-273.945 103.456)"/>
        <circle id="Elipse_479" cx="3.503" cy="3.503" r="3.503" class="cls-1" data-name="Elipse 479" transform="translate(-287.844 111.926)"/>
        <path id="Trazado_2249" d="M-249.6 125.218a17.58 17.58 0 0 0-5.953-3.417c-4.735-1.581-9.67-1.011-14.7 1.695a4.78 4.78 0 0 0-2.534-4.591 4.781 4.781 0 0 0-6.461 2 4.769 4.769 0 0 0 1.393 6.061 12.572 12.572 0 0 1-2.02.169c-4.439 0-8.443-2.328-11.51-4.892a21.249 21.249 0 0 0-.574 4.9 21.225 21.225 0 0 0 21.225 21.225 21.226 21.226 0 0 0 21.226-21.225 20.36 20.36 0 0 0-.092-1.925z" class="cls-1" data-name="Trazado 2249"/>
        <path id="Trazado_2250" d="M-230.758 121.255a41.23 41.23 0 0 0-9.13-20.118 39.679 39.679 0 0 0-8.666-7.7 16.611 16.611 0 0 1-10.146 8.312 27.95 27.95 0 0 1 16.075 25.353A28.046 28.046 0 0 1-270.7 155.3a28.043 28.043 0 0 1-28.2-28.074 28.109 28.109 0 0 1 12.129-23.239 9.153 9.153 0 0 1-1.349-.567 9.045 9.045 0 0 1-4.535-10.244 40.392 40.392 0 0 0-15.118 17.834 38.967 38.967 0 0 0-1.585 27.327c2.958 9.771 10.04 17.894 16.739 25.356a185.091 185.091 0 0 0 14.8 14.631c2.29 2.037 4.641 4 7.045 6.073 2.112-1.805 4.157-3.511 6.156-5.272a185.979 185.979 0 0 0 17.764-17.758c7.129-8.233 13.995-17.581 15.961-28.54a35.7 35.7 0 0 0 .135-11.572z" class="cls-1" data-name="Trazado 2250"/>
    </g>
</svg>
